<svg width="400" height="400" viewBox="0 0 400 400" fill="none" xmlns="http://www.w3.org/2000/svg">
<path fill-rule="evenodd" clip-rule="evenodd" d="M379.419 20.581H275.314C244.386 20.581 219.314 45.653 219.314 76.581V180.686H323.419C354.347 180.686 379.419 155.614 379.419 124.686V20.581Z" fill="#75C32C"/>
<path fill-rule="evenodd" clip-rule="evenodd" d="M180.686 219.314H76.5811C45.6531 219.314 20.5811 244.386 20.5811 275.314V379.419H124.686C155.614 379.419 180.686 354.347 180.686 323.419V219.314Z" fill="#75C32C"/>
<path fill-rule="evenodd" clip-rule="evenodd" d="M20 20V124.105C20 155.033 45.072 180.105 76 180.105H180.105V76C180.105 45.072 155.033 20 124.105 20H20Z" fill="#75C32C"/>
<path fill-rule="evenodd" clip-rule="evenodd" d="M380 380H275.895C244.967 380 219.895 354.928 219.895 324V219.895H324C354.928 219.895 380 244.967 380 275.895V380Z" fill="#75C32C"/>
</svg>
